# xmcd
#
# Track frame offsets: 
#        150
#        21770
#        39375
#        59258
#        80371
#        96151
#        115571
#        135365
#        160199
#        185135
#        208131
#        231557
#        251111
#        269821
#
# Disc length: 3903 seconds
#
# Revision: 0
# Processed by: cddbd v1.5.2PL0 Copyright (c) Steve Scherf et al.
# Submitted via: ExactAudioCopy v1.0b3
#
DISCID=c60f3d0e
DTITLE=Lawrence Fritts - 2000 Blues Licks That Rock
DYEAR=2012
DGENRE=Blues
TTITLE0=Baby Talk Blues in G
TTITLE1=Backdoor Buzzer Blues in D
TTITLE2=Big Daddy's Place Blues in F
TTITLE3=Big Tripper Blues in G
TTITLE4=Blind Oyster Blues in E
TTITLE5=Body Language Blues in F
TTITLE6=Brown Shoes Blues in A
TTITLE7=Bubble Gum Blues in A
TTITLE8=Bumber To Bumber Blues in G
TTITLE9=Cafeteria Blues in D
TTITLE10=Call Me A Cab Blues in A
TTITLE11=Cat Barf Blues in C
TTITLE12=Class A Blues in D
TTITLE13=Cold Call Blues in F
EXTD=
EXTT0=
EXTT1=
EXTT2=
EXTT3=
EXTT4=
EXTT5=
EXTT6=
EXTT7=
EXTT8=
EXTT9=
EXTT10=
EXTT11=
EXTT12=
EXTT13=
PLAYORDER=
